PathFileType	4	(X/Y/Z)	T1_P1_Vision_NoMovement_2_0-682.trc
DataRate	CameraRate	NumFrames	NumMarkers	Units	OrigDataRate	OrigDataStartFrame	OrigNumFrames
60	60	5	27	m	60	426	682
Frame#	Time	RHip			RKnee			RAnkle			RBigToe			RSmallToe			RHeel			LHip			LKnee			LAnkle			LBigToe			LSmallToe			LHeel			Neck			Head			Nose			RShoulder			RElbow			RWrist			RThumb			RIndex			RPinky			LShoulder			LElbow			LWrist			LThumb			LIndex			LPinky		
		X1	Y1	Z1	X2	Y2	Z2	X3	Y3	Z3	X4	Y4	Z4	X5	Y5	Z5	X6	Y6	Z6	X7	Y7	Z7	X8	Y8	Z8	X9	Y9	Z9	X10	Y10	Z10	X11	Y11	Z11	X12	Y12	Z12	X13	Y13	Z13	X14	Y14	Z14	X15	Y15	Z15	X16	Y16	Z16	X17	Y17	Z17	X18	Y18	Z18	X19	Y19	Z19	X20	Y20	Z20	X21	Y21	Z21	X22	Y22	Z22	X23	Y23	Z23	X24	Y24	Z24	X25	Y25	Z25	X26	Y26	Z26	X27	Y27	Z27
427	7.116666666666666	-65.00899920249763	3762.0868128897896	-545.6534364141542	293.25491060421695	3951.060332428689	-521.0292005152303	641.5833526220184	4154.014828486918	-531.721218550716	693.1891016642284	4015.5106758235397	-456.83949408106923	688.9959206493538	3968.3459144823746	-497.13301462147126	680.8576222620908	4193.638087155282	-532.0304473881142	-102.2625004069876	3885.4930017175448	-349.8725107063499	239.4616713915378	3976.923602610387	-358.4392025959985	625.3798820417928	4254.745162853565	-451.5382020691358	663.9676072334712	3994.1264508512877	-347.8771167790909	674.7241044866195	4122.154776958187	-344.4011782331377	671.4329003569417	4316.583539020387	-491.23646643055946	-660.9130522032841	3667.4502879779225	-498.9182719612811	-908.6600300999598	3541.8561589939627	-437.72427080464615	-772.5030373577029	3570.782195971359	-415.7569041037268	-560.0496195305254	3669.7464165248784	-665.8271946935142	-285.2354964206211	3640.435528494566	-680.5192470942644	-25.960526008553174	3642.898283259875	-614.5133736788264	87.37742248727666	3769.361385321337	-568.6771908739549	112.54681620121988	3718.514514961718	-556.8301384157784	97.21352957951866	3652.0029873638487	-580.349265354856	-605.036155524758	3758.226279120214	-357.6252879587142	-391.91784855609836	3981.548843431815	-346.1465977248176	-128.5436109643313	3946.226190739165	-233.17310560005805	6.916502269997564	3846.5775921924615	-234.85423967406987	20.71486988976256	3893.930181664258	-205.19887009537172	4.961310524013141	3979.3000193737744	-213.77167965911184
428	7.133333333333334	-65.0483779620281	3761.9287402257064	-545.5320360157622	291.55369636453423	3949.6813293123614	-521.2728814789658	641.1759266354247	4153.596694857582	-531.1120560391661	691.8483890601556	4012.1253533891345	-456.6993077934236	688.3812645087141	3965.073015327117	-497.1350914412401	679.5355221505438	4185.886366458497	-529.8129841385578	-102.26418000742711	3885.4941191700436	-349.89872314627246	239.59975676289542	3968.497604038753	-357.3811327126013	623.693350502265	4250.965255369196	-448.499440979625	664.1269656488222	3994.3329837422393	-349.00292917148903	673.3792281059294	4121.107456850254	-343.86188461309916	669.2420996703764	4311.208120906242	-487.096626450804	-661.7265327937157	3668.2047040890093	-499.605784545344	-907.3311101892482	3542.0735461448257	-437.7036851380936	-774.4000441783402	3570.569428498903	-416.04549530242525	-560.0812166863818	3669.9282071924654	-665.975217229932	-285.82399554220336	3648.2958913511184	-682.7866009893331	-25.97945652124944	3643.0157398878473	-614.6472498193057	87.15341760056155	3769.021726687536	-568.7021922310571	112.37501961209378	3713.964181517542	-555.7692056206621	95.60610984725368	3651.2738746027153	-580.3711523334873	-605.3166478196723	3760.5257102156047	-359.32428177396883	-391.93624233714644	3981.561039037615	-346.1969598459539	-128.53670097630513	3946.329224239028	-233.22792062502873	6.811956402034649	3849.9673258615417	-234.58472188697732	20.7304354888852	3894.489933299182	-205.25601783267717	5.099825289753943	3978.697708681504	-212.0378281894597
429	7.15	-65.07578182656779	3761.9498631278875	-545.5194601191724	289.74264830094046	3948.98698900782	-522.1597809226237	640.2159530789605	4152.955218825029	-530.3145442284142	692.1050274326193	4012.1927934044006	-457.19731625921355	688.2794449884483	3964.885202302305	-497.56105183847404	678.4169033150469	4178.685534529514	-528.2997180713999	-102.2905916521078	3885.5499997155725	-349.94058747653065	239.4474632953871	3965.5583492789933	-357.57450502174675	621.4159864126532	4243.561457977418	-443.6224716989429	664.2515668936948	3993.9499982564416	-349.42238575794306	673.3595604116784	4121.012786914211	-343.727544619318	666.5876315736608	4302.585499969203	-481.0815815950065	-662.4366329747716	3670.0719852789753	-501.2062969383811	-906.8526940962487	3542.129480938332	-437.7593837336574	-775.7013757797365	3570.7291136957124	-416.48045828369965	-560.0996773124485	3670.015175247021	-666.0312212016041	-286.55526940705147	3658.3273170785615	-685.677224381153	-25.976269817751447	3643.0965421970927	-614.7330949989586	86.57717786279072	3768.4261672609305	-568.6834430093394	112.29535904900467	3711.3759264120745	-555.149030131939	95.41202113173624	3650.983863122983	-579.8913951403069	-605.8762268440322	3765.268251198678	-362.8059174013767	-391.7494710935045	3981.6779774094666	-346.2650431383454	-128.55080866379785	3946.3888154479528	-233.26282789261947	6.924472337677069	3852.5086214130115	-235.26189538974765	20.823617729970202	3895.066411976156	-205.30727974679303	5.579898641046089	3978.475227600738	-210.60738410733603
430	7.166666666666667	-65.08233540844763	3762.006759107633	-545.5343714129014	288.85495614314124	3949.0523905008977	-523.3653640887633	639.2702972830486	4152.514010769246	-530.0678782997352	692.9614795016857	4013.394894659903	-457.91184061989827	688.2294101040237	3966.9436863860274	-498.814229125503	678.3604692849351	4178.025686475769	-528.2837259693532	-102.31279560181756	3885.6077243891928	-349.9507776301807	238.91506476371157	3968.76910578084	-357.6531801250037	619.3845993312025	4235.2833497751935	-438.1651085167152	664.9106910802958	3994.006492021957	-349.32042214062704	675.1598544856452	4121.94292463675	-343.8594869244366	664.982149038005	4296.392251238758	-476.9074321560871	-662.9185413003217	3672.7483387877305	-503.41401825654	-907.3114345428185	3542.0293177031385	-437.70000796010925	-775.8406821444325	3570.8487057990296	-416.6000106577914	-560.1141681181509	3670.0620246444196	-666.042922527889	-287.0426744929812	3665.169074930265	-687.6623377487548	-25.98759868454026	3642.6418321317988	-614.3463514260108	85.74507310977043	3767.8658204923386	-568.6239308614224	112.34950500121239	3713.468747750592	-555.5987902025998	96.65179256012537	3651.1868068937283	-578.9721123804095	-606.3739903882001	3769.6735984917846	-366.02912163291705	-391.2725004356386	3981.8881377433904	-346.2715501194646	-128.58736320501967	3946.3878351443805	-233.2753669370861	7.1446860356331126	3854.0417220620475	-236.69934622327486	20.880835398232144	3895.270165092382	-205.3297160194448	5.954758139413568	3978.8172509832275	-210.67682012585138
431	7.183333333333334	-65.07516100895047	3761.9024468446005	-545.5015742319151	288.7270255952803	3949.523900063623	-523.4789469485484	639.2936714583046	4152.766125923802	-530.6290702147862	693.1611251526548	4013.7579911801286	-457.7701641469402	687.8802071509296	3969.6766731243824	-500.0416703306735	679.0931184625284	4182.6583658665495	-529.3375070336602	-102.33105878462935	3885.6675770225506	-349.9383514605561	238.32133440861776	3976.637210248945	-358.3935901093104	617.8979063791261	4231.1434542386205	-435.5483773100909	666.3752510330929	3994.8487786797687	-349.02929949677304	677.2418828406318	4123.1209551027105	-343.82735019033464	665.3299763673472	4296.968444735696	-477.8442092437879	-663.5734304949436	3673.974409324531	-504.5091812966674	-908.6118450439226	3541.8109197420363	-437.142135835304	-774.8372291203709	3569.49621492234	-415.36031608717593	-560.1357554306263	3670.1050639171385	-666.0482289792641	-287.0055317829762	3664.8039489666858	-687.5739400887529	-26.075697993014888	3640.9218339935883	-612.893606108855	85.29068307389657	3767.5837018556995	-568.4688289263131	112.46986616804682	3717.9106047096247	-556.55901066608	98.87625911614205	3651.795720879285	-578.2718278841769	-606.3266968275545	3769.68594239469	-366.01809426467895	-391.0070179313174	3982.05706238577	-346.1801017372129	-128.517913211152	3946.4274243476775	-233.28481488462788	7.409445234645322	3856.5572460008407	-239.0653854798277	20.818299410954243	3892.3081010803726	-204.8986596757009	6.315061861021947	3979.8374681351215	-212.49473046918067
